<?xml version="1.0" encoding="UTF-8" standalone="no"?>
<!-- Created with Inkscape (http://www.inkscape.org/) -->
<svg
   xmlns:dc="http://purl.org/dc/elements/1.1/"
   xmlns:cc="http://web.resource.org/cc/"
   xmlns:rdf="http://www.w3.org/1999/02/22-rdf-syntax-ns#"
   xmlns:svg="http://www.w3.org/2000/svg"
   xmlns="http://www.w3.org/2000/svg"
   xmlns:xlink="http://www.w3.org/1999/xlink"
   xmlns:sodipodi="http://sodipodi.sourceforge.net/DTD/sodipodi-0.dtd"
   xmlns:inkscape="http://www.inkscape.org/namespaces/inkscape"
   width="299.44919"
   height="323.91867"
   id="svg2836"
   sodipodi:version="0.32"
   inkscape:version="0.44.1"
   version="1.0"
   sodipodi:docbase="/home/dominicw/bw-19d/bigworld/doc/release_planning/images"
   sodipodi:docname="cluster_layout.svg">
  <defs
     id="defs3">
    <linearGradient
       id="linearGradient2951">
      <stop
         style="stop-color:#f9f9f9;stop-opacity:1;"
         offset="0"
         id="stop2953" />
      <stop
         id="stop3848"
         offset="0.40625"
         style="stop-color:#2dd6e5;stop-opacity:0.49803922;" />
      <stop
         style="stop-color:#c3dcdd;stop-opacity:0;"
         offset="1"
         id="stop2955" />
    </linearGradient>
    <linearGradient
       inkscape:collect="always"
       xlink:href="#linearGradient2951"
       id="linearGradient2957"
       x1="107.09375"
       y1="48.15625"
       x2="279.8125"
       y2="48.15625"
       gradientUnits="userSpaceOnUse"
       gradientTransform="matrix(1.2683,0,0,1.268213,16.70181,26.74325)" />
  </defs>
  <sodipodi:namedview
     inkscape:document-units="px"
     id="base"
     pagecolor="#ffffff"
     bordercolor="#666666"
     borderopacity="1.0"
     inkscape:pageopacity="0.0"
     inkscape:pageshadow="2"
     inkscape:zoom="4"
     inkscape:cx="133.80862"
     inkscape:cy="102.87848"
     inkscape:current-layer="layer1"
     height="323.91867px"
     width="299.44919px"
     showgrid="true"
     gridspacingx="5px"
     gridspacingy="5px"
     grid_units="px"
     inkscape:window-width="1910"
     inkscape:window-height="1121"
     inkscape:window-x="0"
     inkscape:window-y="25"
     units="px" />
  <metadata
     id="metadata4">
    <rdf:RDF>
      <cc:Work
         rdf:about="">
        <dc:format>image/svg+xml</dc:format>
        <dc:type
           rdf:resource="http://purl.org/dc/dcmitype/StillImage" />
      </cc:Work>
    </rdf:RDF>
  </metadata>
  <g
     inkscape:label="Layer 1"
     id="layer1"
     transform="translate(-131.9714,-39.91618)"
     inkscape:groupmode="layer">
    <rect
       style="fill:#95daf4;fill-opacity:1;stroke:black;stroke-width:1.00000119;stroke-linejoin:miter;stroke-miterlimit:4;stroke-dasharray:none;stroke-dashoffset:0.99999996;stroke-opacity:1"
       y="295.07712"
       x="132.47141"
       height="33.03569"
       width="298.44919"
       id="rect2864" />
    <rect
       style="fill:#95daf4;fill-opacity:1;stroke:black;stroke-width:1.00000119;stroke-linejoin:miter;stroke-miterlimit:4;stroke-dasharray:none;stroke-dashoffset:0.99999996;stroke-opacity:1"
       y="182.00113"
       x="132.47141"
       height="33.03569"
       width="298.44919"
       id="rect2854" />
    <path
       style="fill:none;fill-opacity:0.75;fill-rule:evenodd;stroke:black;stroke-width:1.00000095px;stroke-linecap:butt;stroke-linejoin:miter;stroke-opacity:1"
       d="M 188.25948,215.498 L 188.25948,241.43357"
       id="path3010" />
    <path
       style="fill:none;fill-opacity:0.75;fill-rule:evenodd;stroke:black;stroke-width:1.00000095px;stroke-linecap:butt;stroke-linejoin:miter;stroke-opacity:1"
       d="M 188.25948,257.54558 L 188.25948,294.58748"
       id="path3012" />
    <rect
       style="fill:#95daf4;fill-opacity:1;stroke:black;stroke-width:1.00000131;stroke-linejoin:miter;stroke-miterlimit:4;stroke-dasharray:none;stroke-dashoffset:0.99999996;stroke-opacity:1"
       y="241.17825"
       x="233.75798"
       height="16.767927"
       width="33.16428"
       id="rect3016" />
    <path
       style="fill:none;fill-opacity:0.75;fill-rule:evenodd;stroke:black;stroke-width:1.00000095px;stroke-linecap:butt;stroke-linejoin:miter;stroke-opacity:1"
       id="path3018"
       d="M 250.9712,215.498 L 250.9712,241.43357" />
    <path
       style="fill:none;fill-opacity:0.75;fill-rule:evenodd;stroke:black;stroke-width:1.00000095px;stroke-linecap:butt;stroke-linejoin:miter;stroke-opacity:1"
       id="path3020"
       d="M 250.9712,257.54558 L 250.9712,294.58748" />
    <rect
       style="fill:#95daf4;fill-opacity:1;stroke:black;stroke-width:1.00000131;stroke-linejoin:miter;stroke-miterlimit:4;stroke-dasharray:none;stroke-dashoffset:0.99999996;stroke-opacity:1"
       y="241.17825"
       x="296.46973"
       height="16.767927"
       width="33.16428"
       id="rect3022" />
    <path
       style="fill:none;fill-opacity:0.75;fill-rule:evenodd;stroke:black;stroke-width:1.00000095px;stroke-linecap:butt;stroke-linejoin:miter;stroke-opacity:1"
       d="M 313.68292,215.498 L 313.68292,241.43357"
       id="path3024" />
    <path
       style="fill:none;fill-opacity:0.75;fill-rule:evenodd;stroke:black;stroke-width:1.00000095px;stroke-linecap:butt;stroke-linejoin:miter;stroke-opacity:1"
       d="M 313.68292,257.54558 L 313.68292,294.58748"
       id="path3026" />
    <path
       transform="scale(1.000687,0.999314)"
       style="font-size:13.22333717px;font-style:normal;font-weight:normal;text-align:center;text-anchor:middle;fill:black;fill-opacity:1;stroke:none;stroke-width:1px;stroke-linecap:butt;stroke-linejoin:miter;stroke-opacity:1;font-family:Sans"
       d="M 233.0477,193.4252 L 238.58755,193.4252 L 238.58755,194.52284 L 234.35195,194.52284 L 234.35195,197.36379 L 238.17433,197.36379 L 238.17433,198.46143 L 234.35195,198.46143 L 234.35195,203.06506 L 233.0477,203.06506 L 233.0477,193.4252 M 239.65937,195.83355 L 240.8474,195.83355 L 240.8474,203.06506 L 239.65937,203.06506 L 239.65937,195.83355 M 239.65937,193.01843 L 240.8474,193.01843 L 240.8474,194.52284 L 239.65937,194.52284 L 239.65937,193.01843 M 247.51718,196.9441 C 247.38374,196.86663 247.23739,196.81067 247.07813,196.77623 C 246.92316,196.7375 246.75098,196.71813 246.56159,196.71812 C 245.89009,196.71813 245.37355,196.93765 245.01198,197.3767 C 244.6547,197.81146 244.47607,198.43776 244.47607,199.25561 L 244.47607,203.06506 L 243.28158,203.06506 L 243.28158,195.83355 L 244.47607,195.83355 L 244.47607,196.95702 C 244.72573,196.51797 245.05072,196.19298 245.45103,195.98206 C 245.85135,195.76684 246.33775,195.65923 246.91025,195.65922 C 246.99203,195.65923 247.08242,195.66568 247.18143,195.67859 C 247.28043,195.68721 247.39019,195.70227 247.51072,195.72379 L 247.51718,196.9441 M 254.67767,199.1523 L 254.67767,199.7334 L 249.2153,199.7334 C 249.26695,200.55125 249.5123,201.1754 249.95136,201.60585 C 250.39472,202.03199 251.01026,202.24506 251.79798,202.24506 C 252.25425,202.24506 252.69546,202.1891 253.1216,202.07719 C 253.55204,201.96527 253.97819,201.7974 254.40003,201.57356 L 254.40003,202.69703 C 253.97388,202.87782 253.53698,203.01556 253.08932,203.11026 C 252.64165,203.20496 252.18753,203.25231 251.72695,203.25231 C 250.57335,203.25231 249.65865,202.91656 248.98285,202.24506 C 248.31136,201.57357 247.97561,200.66532 247.97561,199.52033 C 247.97561,198.33661 248.29414,197.39823 248.9312,196.70521 C 249.57256,196.00789 250.43561,195.65923 251.52034,195.65922 C 252.49315,195.65923 253.26149,195.97345 253.82538,196.6019 C 254.39357,197.22605 254.67766,198.07619 254.67767,199.1523 M 253.48964,198.80364 C 253.48102,198.15367 253.29808,197.63498 252.94082,197.24757 C 252.58784,196.86017 252.11866,196.66647 251.53325,196.66647 C 250.87036,196.66647 250.33876,196.85372 249.93845,197.2282 C 249.54243,197.60269 249.3143,198.12999 249.25404,198.81009 L 253.48964,198.80364 M 255.93673,195.83355 L 257.12476,195.83355 L 258.6098,201.47671 L 260.08839,195.83355 L 261.4895,195.83355 L 262.97454,201.47671 L 264.45313,195.83355 L 265.64116,195.83355 L 263.74934,203.06506 L 262.34824,203.06506 L 260.79217,197.13781 L 259.22965,203.06506 L 257.82854,203.06506 L 255.93673,195.83355 M 270.7355,199.42994 C 269.7756,199.42994 269.11056,199.5397 268.74038,199.75923 C 268.37019,199.97876 268.1851,200.35325 268.1851,200.8827 C 268.1851,201.30454 268.32284,201.64028 268.59833,201.88994 C 268.87812,202.1353 269.25691,202.25798 269.73471,202.25798 C 270.39329,202.25798 270.92059,202.02553 271.31661,201.56065 C 271.71692,201.09147 271.91707,200.46947 271.91708,199.69466 L 271.91708,199.42994 L 270.7355,199.42994 M 273.10511,198.93923 L 273.10511,203.06506 L 271.91708,203.06506 L 271.91708,201.96742 C 271.64589,202.40648 271.30799,202.73147 270.90338,202.94239 C 270.49875,203.149 270.00374,203.25231 269.41833,203.25231 C 268.67796,203.25231 268.08825,203.04569 267.6492,202.63246 C 267.21444,202.21493 266.99707,201.6575 266.99707,200.96018 C 266.99707,200.14663 267.26825,199.53325 267.81061,199.12002 C 268.35728,198.70679 269.17082,198.50018 270.25125,198.50017 L 271.91708,198.50017 L 271.91708,198.38395 C 271.91707,197.83729 271.73629,197.41545 271.37472,197.11844 C 271.01744,196.81713 270.51382,196.66647 269.86385,196.66647 C 269.45061,196.66647 269.04815,196.71597 268.65644,196.81497 C 268.26473,196.91398 267.88809,197.06248 267.52652,197.26048 L 267.52652,196.16284 C 267.96127,195.99498 268.38311,195.87015 268.79203,195.78835 C 269.20095,195.70227 269.59912,195.65923 269.98652,195.65922 C 271.03251,195.65923 271.81377,195.93041 272.33031,196.47277 C 272.84684,197.01513 273.10511,197.83729 273.10511,198.93923 M 275.55866,193.01843 L 276.74669,193.01843 L 276.74669,203.06506 L 275.55866,203.06506 L 275.55866,193.01843 M 279.22607,193.01843 L 280.41411,193.01843 L 280.41411,203.06506 L 279.22607,203.06506 L 279.22607,193.01843 M 285.00483,193.4252 L 286.10247,193.4252 L 282.74498,204.29184 L 281.64734,204.29184 L 285.00483,193.4252 M 291.98453,198.54537 C 292.26431,198.64007 292.53549,198.84238 292.79807,199.1523 C 293.06494,199.46222 293.33182,199.88837 293.5987,200.43073 L 294.92233,203.06506 L 293.52122,203.06506 L 292.28799,200.59214 C 291.96946,199.94648 291.65953,199.51818 291.35823,199.30726 C 291.06121,199.09634 290.65444,198.99089 290.13791,198.99088 L 288.71743,198.99088 L 288.71743,203.06506 L 287.41318,203.06506 L 287.41318,193.4252 L 290.35744,193.4252 C 291.45938,193.42521 292.28153,193.6555 292.8239,194.11607 C 293.36626,194.57665 293.63744,195.27183 293.63744,196.20158 C 293.63744,196.80852 293.49539,197.31214 293.2113,197.71245 C 292.9315,198.11277 292.52258,198.39041 291.98453,198.54537 M 288.71743,194.49701 L 288.71743,197.91907 L 290.35744,197.91907 C 290.98588,197.91907 291.45938,197.77487 291.77791,197.48647 C 292.10074,197.19377 292.26216,196.76548 292.26217,196.20158 C 292.26216,195.6377 292.10074,195.21371 291.77791,194.92961 C 291.45938,194.64122 290.98588,194.49702 290.35744,194.49701 L 288.71743,194.49701 M 298.76407,196.66647 C 298.127,196.66647 297.62338,196.91613 297.2532,197.41544 C 296.88301,197.91046 296.69792,198.59057 296.69792,199.45576 C 296.69792,200.32097 296.88086,201.00322 297.24674,201.50254 C 297.61692,201.99756 298.1227,202.24506 298.76407,202.24506 C 299.39682,202.24506 299.89829,201.9954 300.26848,201.49608 C 300.63866,200.99677 300.82375,200.31666 300.82376,199.45576 C 300.82375,198.59918 300.63866,197.92122 300.26848,197.4219 C 299.89829,196.91828 299.39682,196.66647 298.76407,196.66647 M 298.76407,195.65922 C 299.79714,195.65923 300.60853,195.99498 301.19825,196.66647 C 301.78795,197.33797 302.08281,198.26773 302.08282,199.45576 C 302.08281,200.6395 301.78795,201.56926 301.19825,202.24506 C 300.60853,202.91656 299.79714,203.25231 298.76407,203.25231 C 297.72669,203.25231 296.91314,202.91656 296.32343,202.24506 C 295.73802,201.56926 295.44532,200.6395 295.44532,199.45576 C 295.44532,198.26773 295.73802,197.33797 296.32343,196.66647 C 296.91314,195.99498 297.72669,195.65923 298.76407,195.65922 M 303.92297,200.2112 L 303.92297,195.83355 L 305.11101,195.83355 L 305.11101,200.166 C 305.11101,200.85041 305.24444,201.3648 305.51132,201.70915 C 305.7782,202.04921 306.17851,202.21924 306.71227,202.21923 C 307.35363,202.21924 307.85941,202.01477 308.2296,201.60585 C 308.60408,201.19692 308.79133,200.6395 308.79133,199.93356 L 308.79133,195.83355 L 309.97937,195.83355 L 309.97937,203.06506 L 308.79133,203.06506 L 308.79133,201.95451 C 308.50293,202.39357 308.16718,202.72071 307.78409,202.93593 C 307.40529,203.14685 306.96408,203.25231 306.46046,203.25231 C 305.62969,203.25231 304.99909,202.99404 304.56865,202.4775 C 304.1382,201.96097 303.92297,201.20553 303.92297,200.2112 M 313.6145,193.78032 L 313.6145,195.83355 L 316.06159,195.83355 L 316.06159,196.75686 L 313.6145,196.75686 L 313.6145,200.68254 C 313.61449,201.27225 313.69413,201.65105 313.85339,201.81892 C 314.01696,201.98679 314.34625,202.07073 314.84127,202.07073 L 316.06159,202.07073 L 316.06159,203.06506 L 314.84127,203.06506 C 313.92441,203.06506 313.29166,202.89504 312.943,202.55498 C 312.59433,202.21063 312.42,201.58648 312.42,200.68254 L 312.42,196.75686 L 311.54835,196.75686 L 311.54835,195.83355 L 312.42,195.83355 L 312.42,193.78032 L 313.6145,193.78032 M 323.81609,199.1523 L 323.81609,199.7334 L 318.35372,199.7334 C 318.40537,200.55125 318.65072,201.1754 319.08978,201.60585 C 319.53314,202.03199 320.14868,202.24506 320.9364,202.24506 C 321.39267,202.24506 321.83388,202.1891 322.26003,202.07719 C 322.69047,201.96527 323.11661,201.7974 323.53845,201.57356 L 323.53845,202.69703 C 323.11231,202.87782 322.6754,203.01556 322.22774,203.11026 C 321.78007,203.20496 321.32595,203.25231 320.86538,203.25231 C 319.71178,203.25231 318.79708,202.91656 318.12128,202.24506 C 317.44978,201.57357 317.11403,200.66532 317.11403,199.52033 C 317.11403,198.33661 317.43256,197.39823 318.06962,196.70521 C 318.71099,196.00789 319.57403,195.65923 320.65876,195.65922 C 321.63157,195.65923 322.39992,195.97345 322.96381,196.6019 C 323.53199,197.22605 323.81609,198.07619 323.81609,199.1523 M 322.62806,198.80364 C 322.61944,198.15367 322.4365,197.63498 322.07924,197.24757 C 321.72627,196.86017 321.25708,196.66647 320.67168,196.66647 C 320.00878,196.66647 319.47718,196.85372 319.07687,197.2282 C 318.68086,197.60269 318.45272,198.12999 318.39246,198.81009 L 322.62806,198.80364 M 329.95642,196.9441 C 329.82298,196.86663 329.67663,196.81067 329.51737,196.77623 C 329.3624,196.7375 329.19022,196.71813 329.00083,196.71812 C 328.32933,196.71813 327.81279,196.93765 327.45122,197.3767 C 327.09395,197.81146 326.91531,198.43776 326.91531,199.25561 L 326.91531,203.06506 L 325.72082,203.06506 L 325.72082,195.83355 L 326.91531,195.83355 L 326.91531,196.95702 C 327.16497,196.51797 327.48996,196.19298 327.89028,195.98206 C 328.29059,195.76684 328.77699,195.65923 329.34949,195.65922 C 329.43127,195.65923 329.52167,195.66568 329.62067,195.67859 C 329.71967,195.68721 329.82944,195.70227 329.94997,195.72379 L 329.95642,196.9441"
       id="text3162" />
    <path
       transform="scale(1.000687,0.999314)"
       style="font-size:13.22333717px;font-style:normal;font-weight:normal;text-align:center;text-anchor:middle;fill:black;fill-opacity:1;stroke:none;stroke-width:1px;stroke-linecap:butt;stroke-linejoin:miter;stroke-opacity:1;font-family:Sans"
       d="M 233.0477,306.5787 L 238.58755,306.5787 L 238.58755,307.67634 L 234.35195,307.67634 L 234.35195,310.51729 L 238.17433,310.51729 L 238.17433,311.61493 L 234.35195,311.61493 L 234.35195,316.21857 L 233.0477,316.21857 L 233.0477,306.5787 M 239.65937,308.98705 L 240.8474,308.98705 L 240.8474,316.21857 L 239.65937,316.21857 L 239.65937,308.98705 M 239.65937,306.17193 L 240.8474,306.17193 L 240.8474,307.67634 L 239.65937,307.67634 L 239.65937,306.17193 M 247.51718,310.09761 C 247.38374,310.02013 247.23739,309.96418 247.07813,309.92973 C 246.92316,309.891 246.75098,309.87163 246.56159,309.87162 C 245.89009,309.87163 245.37355,310.09116 245.01198,310.53021 C 244.6547,310.96496 244.47607,311.59126 244.47607,312.40911 L 244.47607,316.21857 L 243.28158,316.21857 L 243.28158,308.98705 L 244.47607,308.98705 L 244.47607,310.11052 C 244.72573,309.67147 245.05072,309.34648 245.45103,309.13556 C 245.85135,308.92034 246.33775,308.81273 246.91025,308.81272 C 246.99203,308.81273 247.08242,308.81919 247.18143,308.83209 C 247.28043,308.84071 247.39019,308.85578 247.51072,308.87729 L 247.51718,310.09761 M 254.67767,312.3058 L 254.67767,312.88691 L 249.2153,312.88691 C 249.26695,313.70476 249.5123,314.32891 249.95136,314.75935 C 250.39472,315.18549 251.01026,315.39857 251.79798,315.39857 C 252.25425,315.39857 252.69546,315.34261 253.1216,315.23069 C 253.55204,315.11878 253.97819,314.9509 254.40003,314.72707 L 254.40003,315.85053 C 253.97388,316.03132 253.53698,316.16907 253.08932,316.26376 C 252.64165,316.35846 252.18753,316.40581 251.72695,316.40581 C 250.57335,316.40581 249.65865,316.07006 248.98285,315.39857 C 248.31136,314.72707 247.97561,313.81883 247.97561,312.67383 C 247.97561,311.49011 248.29414,310.55174 248.9312,309.85871 C 249.57256,309.16139 250.43561,308.81273 251.52034,308.81272 C 252.49315,308.81273 253.26149,309.12696 253.82538,309.7554 C 254.39357,310.37956 254.67766,311.22969 254.67767,312.3058 M 253.48964,311.95714 C 253.48102,311.30717 253.29808,310.78848 252.94082,310.40107 C 252.58784,310.01368 252.11866,309.81998 251.53325,309.81997 C 250.87036,309.81998 250.33876,310.00722 249.93845,310.3817 C 249.54243,310.7562 249.3143,311.28349 249.25404,311.9636 L 253.48964,311.95714 M 255.93673,308.98705 L 257.12476,308.98705 L 258.6098,314.63022 L 260.08839,308.98705 L 261.4895,308.98705 L 262.97454,314.63022 L 264.45313,308.98705 L 265.64116,308.98705 L 263.74934,316.21857 L 262.34824,316.21857 L 260.79217,310.29131 L 259.22965,316.21857 L 257.82854,316.21857 L 255.93673,308.98705 M 270.7355,312.58344 C 269.7756,312.58344 269.11056,312.69321 268.74038,312.91273 C 268.37019,313.13226 268.1851,313.50675 268.1851,314.0362 C 268.1851,314.45804 268.32284,314.79379 268.59833,315.04345 C 268.87812,315.2888 269.25691,315.41148 269.73471,315.41148 C 270.39329,315.41148 270.92059,315.17904 271.31661,314.71415 C 271.71692,314.24497 271.91707,313.62297 271.91708,312.84817 L 271.91708,312.58344 L 270.7355,312.58344 M 273.10511,312.09273 L 273.10511,316.21857 L 271.91708,316.21857 L 271.91708,315.12093 C 271.64589,315.55998 271.30799,315.88497 270.90338,316.09589 C 270.49875,316.3025 270.00374,316.40581 269.41833,316.40581 C 268.67796,316.40581 268.08825,316.1992 267.6492,315.78597 C 267.21444,315.36843 266.99707,314.81101 266.99707,314.11368 C 266.99707,313.30014 267.26825,312.68675 267.81061,312.27352 C 268.35728,311.86029 269.17082,311.65368 270.25125,311.65367 L 271.91708,311.65367 L 271.91708,311.53745 C 271.91707,310.99079 271.73629,310.56895 271.37472,310.27194 C 271.01744,309.97063 270.51382,309.81998 269.86385,309.81997 C 269.45061,309.81998 269.04815,309.86948 268.65644,309.96847 C 268.26473,310.06748 267.88809,310.21599 267.52652,310.41399 L 267.52652,309.31635 C 267.96127,309.14848 268.38311,309.02365 268.79203,308.94186 C 269.20095,308.85578 269.59912,308.81273 269.98652,308.81272 C 271.03251,308.81273 271.81377,309.08391 272.33031,309.62627 C 272.84684,310.16864 273.10511,310.99079 273.10511,312.09273 M 275.55866,306.17193 L 276.74669,306.17193 L 276.74669,316.21857 L 275.55866,316.21857 L 275.55866,306.17193 M 279.22607,306.17193 L 280.41411,306.17193 L 280.41411,316.21857 L 279.22607,316.21857 L 279.22607,306.17193 M 285.00483,306.5787 L 286.10247,306.5787 L 282.74498,317.44534 L 281.64734,317.44534 L 285.00483,306.5787 M 291.98453,311.69887 C 292.26431,311.79357 292.53549,311.99588 292.79807,312.3058 C 293.06494,312.61573 293.33182,313.04187 293.5987,313.58423 L 294.92233,316.21857 L 293.52122,316.21857 L 292.28799,313.74565 C 291.96946,313.09998 291.65953,312.67169 291.35823,312.46076 C 291.06121,312.24985 290.65444,312.14439 290.13791,312.14438 L 288.71743,312.14438 L 288.71743,316.21857 L 287.41318,316.21857 L 287.41318,306.5787 L 290.35744,306.5787 C 291.45938,306.57871 292.28153,306.809 292.8239,307.26957 C 293.36626,307.73016 293.63744,308.42533 293.63744,309.35509 C 293.63744,309.96202 293.49539,310.46565 293.2113,310.86596 C 292.9315,311.26628 292.52258,311.54392 291.98453,311.69887 M 288.71743,307.65052 L 288.71743,311.07257 L 290.35744,311.07257 C 290.98588,311.07258 291.45938,310.92838 291.77791,310.63997 C 292.10074,310.34727 292.26216,309.91898 292.26217,309.35509 C 292.26216,308.79121 292.10074,308.36722 291.77791,308.08312 C 291.45938,307.79472 290.98588,307.65052 290.35744,307.65052 L 288.71743,307.65052 M 298.76407,309.81997 C 298.127,309.81998 297.62338,310.06964 297.2532,310.56895 C 296.88301,311.06397 296.69792,311.74407 296.69792,312.60927 C 296.69792,313.47447 296.88086,314.15673 297.24674,314.65604 C 297.61692,315.15106 298.1227,315.39857 298.76407,315.39857 C 299.39682,315.39857 299.89829,315.14891 300.26848,314.64959 C 300.63866,314.15027 300.82375,313.47016 300.82376,312.60927 C 300.82375,311.75268 300.63866,311.07473 300.26848,310.5754 C 299.89829,310.07179 299.39682,309.81998 298.76407,309.81997 M 298.76407,308.81272 C 299.79714,308.81273 300.60853,309.14848 301.19825,309.81997 C 301.78795,310.49147 302.08281,311.42124 302.08282,312.60927 C 302.08281,313.793 301.78795,314.72276 301.19825,315.39857 C 300.60853,316.07006 299.79714,316.40581 298.76407,316.40581 C 297.72669,316.40581 296.91314,316.07006 296.32343,315.39857 C 295.73802,314.72276 295.44532,313.793 295.44532,312.60927 C 295.44532,311.42124 295.73802,310.49147 296.32343,309.81997 C 296.91314,309.14848 297.72669,308.81273 298.76407,308.81272 M 303.92297,313.3647 L 303.92297,308.98705 L 305.11101,308.98705 L 305.11101,313.31951 C 305.11101,314.00392 305.24444,314.5183 305.51132,314.86266 C 305.7782,315.20271 306.17851,315.37274 306.71227,315.37274 C 307.35363,315.37274 307.85941,315.16828 308.2296,314.75935 C 308.60408,314.35043 308.79133,313.793 308.79133,313.08706 L 308.79133,308.98705 L 309.97937,308.98705 L 309.97937,316.21857 L 308.79133,316.21857 L 308.79133,315.10801 C 308.50293,315.54707 308.16718,315.87421 307.78409,316.08943 C 307.40529,316.30035 306.96408,316.40581 306.46046,316.40581 C 305.62969,316.40581 304.99909,316.14754 304.56865,315.63101 C 304.1382,315.11447 303.92297,314.35904 303.92297,313.3647 M 313.6145,306.93382 L 313.6145,308.98705 L 316.06159,308.98705 L 316.06159,309.91036 L 313.6145,309.91036 L 313.6145,313.83604 C 313.61449,314.42576 313.69413,314.80455 313.85339,314.97242 C 314.01696,315.1403 314.34625,315.22423 314.84127,315.22423 L 316.06159,315.22423 L 316.06159,316.21857 L 314.84127,316.21857 C 313.92441,316.21857 313.29166,316.04854 312.943,315.70849 C 312.59433,315.36413 312.42,314.73998 312.42,313.83604 L 312.42,309.91036 L 311.54835,309.91036 L 311.54835,308.98705 L 312.42,308.98705 L 312.42,306.93382 L 313.6145,306.93382 M 323.81609,312.3058 L 323.81609,312.88691 L 318.35372,312.88691 C 318.40537,313.70476 318.65072,314.32891 319.08978,314.75935 C 319.53314,315.18549 320.14868,315.39857 320.9364,315.39857 C 321.39267,315.39857 321.83388,315.34261 322.26003,315.23069 C 322.69047,315.11878 323.11661,314.9509 323.53845,314.72707 L 323.53845,315.85053 C 323.11231,316.03132 322.6754,316.16907 322.22774,316.26376 C 321.78007,316.35846 321.32595,316.40581 320.86538,316.40581 C 319.71178,316.40581 318.79708,316.07006 318.12128,315.39857 C 317.44978,314.72707 317.11403,313.81883 317.11403,312.67383 C 317.11403,311.49011 317.43256,310.55174 318.06962,309.85871 C 318.71099,309.16139 319.57403,308.81273 320.65876,308.81272 C 321.63157,308.81273 322.39992,309.12696 322.96381,309.7554 C 323.53199,310.37956 323.81609,311.22969 323.81609,312.3058 M 322.62806,311.95714 C 322.61944,311.30717 322.4365,310.78848 322.07924,310.40107 C 321.72627,310.01368 321.25708,309.81998 320.67168,309.81997 C 320.00878,309.81998 319.47718,310.00722 319.07687,310.3817 C 318.68086,310.7562 318.45272,311.28349 318.39246,311.9636 L 322.62806,311.95714 M 329.95642,310.09761 C 329.82298,310.02013 329.67663,309.96418 329.51737,309.92973 C 329.3624,309.891 329.19022,309.87163 329.00083,309.87162 C 328.32933,309.87163 327.81279,310.09116 327.45122,310.53021 C 327.09395,310.96496 326.91531,311.59126 326.91531,312.40911 L 326.91531,316.21857 L 325.72082,316.21857 L 325.72082,308.98705 L 326.91531,308.98705 L 326.91531,310.11052 C 327.16497,309.67147 327.48996,309.34648 327.89028,309.13556 C 328.29059,308.92034 328.77699,308.81273 329.34949,308.81272 C 329.43127,308.81273 329.52167,308.81919 329.62067,308.83209 C 329.71967,308.84071 329.82944,308.85578 329.94997,308.87729 L 329.95642,310.09761"
       id="text3166" />
    <rect
       style="fill:#95daf4;fill-opacity:1;stroke:black;stroke-width:1.00000131;stroke-linejoin:miter;stroke-miterlimit:4;stroke-dasharray:none;stroke-dashoffset:0.99999996;stroke-opacity:1"
       y="241.17825"
       x="171.04626"
       height="16.767927"
       width="33.16428"
       id="rect2862" />
    <path
       transform="scale(1.000687,0.999314)"
       style="font-size:7.93400192px;font-style:normal;font-weight:normal;text-align:center;text-anchor:middle;fill:black;fill-opacity:1;stroke:none;stroke-width:1px;stroke-linecap:butt;stroke-linejoin:miter;stroke-opacity:1;font-family:Sans"
       d="M 172.6311,246.73744 L 173.28323,246.73744 L 173.28323,251.00855 L 175.63024,251.00855 L 175.63024,251.55737 L 172.6311,251.55737 L 172.6311,246.73744 M 177.57048,248.35807 C 177.25195,248.35808 177.00014,248.48291 176.81505,248.73256 C 176.62995,248.98007 176.53741,249.32013 176.53741,249.75272 C 176.53741,250.18532 176.62888,250.52645 176.81182,250.77611 C 176.99691,251.02362 177.2498,251.14737 177.57048,251.14737 C 177.88686,251.14737 178.13759,251.02254 178.32269,250.77288 C 178.50778,250.52322 178.60032,250.18317 178.60033,249.75272 C 178.60032,249.32443 178.50778,248.98545 178.32269,248.73579 C 178.13759,248.48398 177.88686,248.35808 177.57048,248.35807 M 177.57048,247.85445 C 178.08702,247.85445 178.49271,248.02233 178.78757,248.35807 C 179.08242,248.69383 179.22985,249.15871 179.22985,249.75272 C 179.22985,250.34459 179.08242,250.80947 178.78757,251.14737 C 178.49271,251.48312 178.08702,251.651 177.57048,251.651 C 177.05179,251.651 176.64502,251.48312 176.35016,251.14737 C 176.05746,250.80947 175.91111,250.34459 175.91111,249.75272 C 175.91111,249.15871 176.05746,248.69383 176.35016,248.35807 C 176.64502,248.02233 177.05179,247.85445 177.57048,247.85445 M 182.59057,249.70753 C 182.59057,249.27708 182.50125,248.94349 182.32262,248.70674 C 182.14613,248.46999 181.89755,248.35162 181.57687,248.35162 C 181.25834,248.35162 181.00975,248.46999 180.83112,248.70674 C 180.65463,248.94349 180.56639,249.27708 180.56639,249.70753 C 180.56639,250.13582 180.65463,250.46834 180.83112,250.70509 C 181.00975,250.94183 181.25834,251.06021 181.57687,251.06021 C 181.89755,251.06021 182.14613,250.94183 182.32262,250.70509 C 182.50125,250.46834 182.59057,250.13582 182.59057,249.70753 M 183.18459,251.10863 C 183.18458,251.72417 183.04792,252.18152 182.77459,252.48068 C 182.50125,252.78199 182.08264,252.93265 181.51876,252.93265 C 181.30999,252.93265 181.11306,252.91651 180.92797,252.88423 C 180.74288,252.85409 180.56316,252.80674 180.38883,252.74218 L 180.38883,252.1643 C 180.56316,252.259 180.73534,252.32895 180.90537,252.37415 C 181.0754,252.41934 181.24865,252.44194 181.42514,252.44194 C 181.81469,252.44194 182.10632,252.33971 182.30002,252.13525 C 182.49372,251.93294 182.59057,251.62624 182.59057,251.21517 L 182.59057,250.92139 C 182.46789,251.13446 182.31078,251.29372 182.11923,251.39918 C 181.92768,251.50464 181.69847,251.55737 181.43159,251.55737 C 180.98823,251.55737 180.63096,251.38842 180.35978,251.05052 C 180.0886,250.71262 179.95301,250.26496 179.95301,249.70753 C 179.95301,249.14795 180.0886,248.69921 180.35978,248.3613 C 180.63096,248.02341 180.98823,247.85445 181.43159,247.85445 C 181.69847,247.85445 181.92768,247.90718 182.11923,248.01264 C 182.31078,248.1181 182.46789,248.27737 182.59057,248.49044 L 182.59057,247.94162 L 183.18459,247.94162 L 183.18459,251.10863 M 184.40813,247.94162 L 185.00215,247.94162 L 185.00215,251.55737 L 184.40813,251.55737 L 184.40813,247.94162 M 184.40813,246.53405 L 185.00215,246.53405 L 185.00215,247.28626 L 184.40813,247.28626 L 184.40813,246.53405 M 189.24744,249.37501 L 189.24744,251.55737 L 188.65342,251.55737 L 188.65342,249.39438 C 188.65342,249.05217 188.5867,248.79606 188.45326,248.62603 C 188.31982,248.456 188.11966,248.37099 187.85279,248.37099 C 187.5321,248.37099 187.27922,248.47322 187.09412,248.67768 C 186.90903,248.88215 186.81648,249.16086 186.81649,249.51383 L 186.81649,251.55737 L 186.21924,251.55737 L 186.21924,247.94162 L 186.81649,247.94162 L 186.81649,248.50335 C 186.95853,248.28598 187.12533,248.12348 187.31688,248.01587 C 187.51058,247.90826 187.73334,247.85445 187.98515,247.85445 C 188.40053,247.85445 188.71475,247.98359 188.92783,248.24185 C 189.1409,248.49797 189.24743,248.87569 189.24744,249.37501 M 192.07547,247.37988 L 191.1909,249.77855 L 192.96327,249.77855 L 192.07547,247.37988 M 191.70744,246.73744 L 192.44673,246.73744 L 194.28367,251.55737 L 193.60571,251.55737 L 193.16666,250.32091 L 190.99398,250.32091 L 190.55492,251.55737 L 189.86728,251.55737 L 191.70744,246.73744 M 195.53304,251.01501 L 195.53304,252.93265 L 194.9358,252.93265 L 194.9358,247.94162 L 195.53304,247.94162 L 195.53304,248.49044 C 195.65787,248.27522 195.81498,248.11595 196.00438,248.01264 C 196.19593,247.90718 196.42406,247.85445 196.68879,247.85445 C 197.12784,247.85445 197.48404,248.02879 197.75738,248.37744 C 198.03286,248.72611 198.1706,249.18454 198.17061,249.75272 C 198.1706,250.32091 198.03286,250.77934 197.75738,251.128 C 197.48404,251.47666 197.12784,251.651 196.68879,251.651 C 196.42406,251.651 196.19593,251.59934 196.00438,251.49603 C 195.81498,251.39057 195.65787,251.23023 195.53304,251.01501 M 197.55399,249.75272 C 197.55399,249.31582 197.46359,248.97362 197.28281,248.72611 C 197.10417,248.47645 196.85774,248.35162 196.54352,248.35162 C 196.22929,248.35162 195.98178,248.47645 195.80099,248.72611 C 195.62236,248.97362 195.53304,249.31582 195.53304,249.75272 C 195.53304,250.18963 195.62236,250.53291 195.80099,250.78257 C 195.98178,251.03008 196.22929,251.15383 196.54352,251.15383 C 196.85774,251.15383 197.10417,251.03008 197.28281,250.78257 C 197.46359,250.53291 197.55399,250.18963 197.55399,249.75272 M 199.7299,251.01501 L 199.7299,252.93265 L 199.13265,252.93265 L 199.13265,247.94162 L 199.7299,247.94162 L 199.7299,248.49044 C 199.85473,248.27522 200.01184,248.11595 200.20124,248.01264 C 200.39279,247.90718 200.62092,247.85445 200.88565,247.85445 C 201.3247,247.85445 201.6809,248.02879 201.95424,248.37744 C 202.22972,248.72611 202.36746,249.18454 202.36747,249.75272 C 202.36746,250.32091 202.22972,250.77934 201.95424,251.128 C 201.6809,251.47666 201.3247,251.651 200.88565,251.651 C 200.62092,251.651 200.39279,251.59934 200.20124,251.49603 C 200.01184,251.39057 199.85473,251.23023 199.7299,251.01501 M 201.75085,249.75272 C 201.75085,249.31582 201.66045,248.97362 201.47967,248.72611 C 201.30103,248.47645 201.0546,248.35162 200.74037,248.35162 C 200.42615,248.35162 200.17864,248.47645 199.99785,248.72611 C 199.81922,248.97362 199.7299,249.31582 199.7299,249.75272 C 199.7299,250.18963 199.81922,250.53291 199.99785,250.78257 C 200.17864,251.03008 200.42615,251.15383 200.74037,251.15383 C 201.0546,251.15383 201.30103,251.03008 201.47967,250.78257 C 201.66045,250.53291 201.75085,250.18963 201.75085,249.75272"
       id="text3170" />
    <path
       transform="scale(1.000687,0.999314)"
       style="font-size:13.22333717px;font-style:normal;font-weight:normal;text-align:center;text-anchor:middle;fill:black;fill-opacity:1;stroke:none;stroke-width:1px;stroke-linecap:butt;stroke-linejoin:miter;stroke-opacity:1;font-family:Sans"
       d="M 236.81696,249.15387 L 236.81696,250.91978 L 237.86295,250.91978 C 238.21376,250.91978 238.4731,250.84768 238.64098,250.70348 C 238.811,250.55713 238.89602,250.33437 238.89602,250.03521 C 238.89602,249.7339 238.811,249.51222 238.64098,249.37017 C 238.4731,249.22597 238.21376,249.15387 237.86295,249.15387 L 236.81696,249.15387 M 236.81696,247.17166 L 236.81696,248.62442 L 237.78224,248.62442 C 238.10077,248.62443 238.33751,248.56524 238.49247,248.44686 C 238.64958,248.32634 238.72814,248.1434 238.72814,247.89804 C 238.72814,247.65484 238.64958,247.47298 238.49247,247.35245 C 238.33751,247.23193 238.10077,247.17167 237.78224,247.17166 L 236.81696,247.17166 M 236.16483,246.63576 L 237.83066,246.63576 C 238.32783,246.63576 238.71092,246.73907 238.97996,246.94568 C 239.24898,247.1523 239.3835,247.44608 239.3835,247.82702 C 239.3835,248.12188 239.31463,248.35647 239.17689,248.5308 C 239.03914,248.70513 238.83683,248.81382 238.56996,248.85686 C 238.89064,248.92574 239.13922,249.06994 239.31571,249.28946 C 239.49434,249.50684 239.58365,249.7791 239.58366,250.10624 C 239.58365,250.53668 239.4373,250.8692 239.1446,251.1038 C 238.85189,251.33839 238.43544,251.45569 237.89523,251.45569 L 236.16483,251.45569 L 236.16483,246.63576 M 242.31485,249.63813 C 241.8349,249.63813 241.50238,249.69301 241.31728,249.80277 C 241.13219,249.91254 241.03964,250.09978 241.03965,250.3645 C 241.03964,250.57542 241.10852,250.7433 241.24626,250.86813 C 241.38615,250.99081 241.57555,251.05214 241.81445,251.05214 C 242.14374,251.05214 242.40739,250.93592 242.6054,250.70348 C 242.80555,250.46889 242.90563,250.15789 242.90563,249.77049 L 242.90563,249.63813 L 242.31485,249.63813 M 243.49965,249.39277 L 243.49965,251.45569 L 242.90563,251.45569 L 242.90563,250.90687 C 242.77004,251.1264 242.60109,251.28889 242.39878,251.39435 C 242.19647,251.49766 241.94896,251.54931 241.65626,251.54931 C 241.28608,251.54931 240.99122,251.446 240.77169,251.23939 C 240.55432,251.03062 240.44563,250.75191 240.44563,250.40325 C 240.44563,249.99647 240.58122,249.68978 240.8524,249.48316 C 241.12573,249.27655 241.53251,249.17324 242.07272,249.17324 L 242.90563,249.17324 L 242.90563,249.11513 C 242.90563,248.8418 242.81524,248.63088 242.63445,248.48237 C 242.45581,248.33172 242.204,248.25639 241.87902,248.25639 C 241.6724,248.25639 241.47117,248.28114 241.27532,248.33064 C 241.07946,248.38015 240.89114,248.4544 240.71035,248.5534 L 240.71035,248.00458 C 240.92773,247.92064 241.13865,247.85823 241.34311,247.81733 C 241.54757,247.77429 241.74665,247.75277 241.94036,247.75277 C 242.46335,247.75277 242.85398,247.88836 243.11225,248.15954 C 243.37051,248.43072 243.49965,248.8418 243.49965,249.39277 M 247.03147,247.94647 L 247.03147,248.5082 C 246.86359,248.42212 246.68926,248.35755 246.50848,248.3145 C 246.32769,248.27146 246.14044,248.24994 245.94674,248.24993 C 245.65189,248.24994 245.43021,248.29513 245.2817,248.38552 C 245.13535,248.47592 245.06217,248.61151 245.06218,248.7923 C 245.06217,248.93004 245.1149,249.03873 245.22036,249.11836 C 245.32582,249.19584 245.53782,249.2701 245.85635,249.34112 L 246.05974,249.38631 C 246.48157,249.47671 246.78073,249.60477 246.95722,249.77049 C 247.13585,249.93406 247.22517,250.16327 247.22517,250.45813 C 247.22517,250.79388 247.09173,251.05968 246.82486,251.25553 C 246.56013,251.45138 246.19533,251.54931 245.73044,251.54931 C 245.53674,251.54931 245.33443,251.52994 245.12351,251.4912 C 244.91475,251.45461 244.69414,251.39865 244.4617,251.32333 L 244.4617,250.70994 C 244.68123,250.82401 244.89753,250.9101 245.1106,250.96821 C 245.32367,251.02417 245.53459,251.05214 245.74336,251.05214 C 246.02315,251.05214 246.23837,251.0048 246.38903,250.9101 C 246.53968,250.81325 246.61501,250.67766 246.61501,250.50332 C 246.61501,250.34191 246.56013,250.21815 246.45037,250.13206 C 246.34275,250.04598 246.10493,249.96311 245.7369,249.88348 L 245.53029,249.83505 C 245.16225,249.75758 244.89645,249.6392 244.73288,249.47994 C 244.56931,249.31852 244.48753,249.09792 244.48753,248.81812 C 244.48753,248.47807 244.60805,248.2155 244.8491,248.03041 C 245.09015,247.84532 245.43236,247.75277 245.87572,247.75277 C 246.09525,247.75277 246.30186,247.76891 246.49556,247.80119 C 246.68926,247.83348 246.8679,247.8819 247.03147,247.94647 M 251.26707,249.49931 L 251.26707,249.78986 L 248.53588,249.78986 C 248.56171,250.19878 248.68439,250.51086 248.90392,250.72608 C 249.12559,250.93915 249.43336,251.04569 249.82723,251.04569 C 250.05536,251.04569 250.27596,251.01771 250.48904,250.96175 C 250.70426,250.90579 250.91733,250.82186 251.12825,250.70994 L 251.12825,251.27167 C 250.91518,251.36207 250.69673,251.43094 250.4729,251.47829 C 250.24906,251.52564 250.022,251.54931 249.79171,251.54931 C 249.21491,251.54931 248.75756,251.38144 248.41966,251.04569 C 248.08391,250.70994 247.91604,250.25582 247.91604,249.68332 C 247.91604,249.09146 248.0753,248.62227 248.39384,248.27576 C 248.71452,247.9271 249.14604,247.75277 249.68841,247.75277 C 250.17481,247.75277 250.55898,247.90988 250.84093,248.22411 C 251.12502,248.53618 251.26707,248.96125 251.26707,249.49931 M 250.67305,249.32497 C 250.66875,248.99999 250.57728,248.74065 250.39864,248.54694 C 250.22216,248.35324 249.98756,248.25639 249.69486,248.25639 C 249.36342,248.25639 249.09762,248.35002 248.89746,248.53726 C 248.69945,248.7245 248.58538,248.98815 248.55525,249.3282 L 250.67305,249.32497 M 253.87881,247.2782 L 252.99424,249.67687 L 254.76661,249.67687 L 253.87881,247.2782 M 253.51078,246.63576 L 254.25007,246.63576 L 256.087,251.45569 L 255.40905,251.45569 L 254.96999,250.21923 L 252.79731,250.21923 L 252.35825,251.45569 L 251.67062,251.45569 L 253.51078,246.63576 M 257.33638,250.91333 L 257.33638,252.83097 L 256.73913,252.83097 L 256.73913,247.83993 L 257.33638,247.83993 L 257.33638,248.38875 C 257.4612,248.17353 257.61832,248.01427 257.80772,247.91096 C 257.99926,247.8055 258.2274,247.75277 258.49213,247.75277 C 258.93118,247.75277 259.28738,247.9271 259.56071,248.27576 C 259.83619,248.62443 259.97394,249.08285 259.97394,249.65104 C 259.97394,250.21923 259.83619,250.67766 259.56071,251.02632 C 259.28738,251.37498 258.93118,251.54931 258.49213,251.54931 C 258.2274,251.54931 257.99926,251.49766 257.80772,251.39435 C 257.61832,251.28889 257.4612,251.12855 257.33638,250.91333 M 259.35733,249.65104 C 259.35732,249.21414 259.26693,248.87193 259.08614,248.62442 C 258.90751,248.37477 258.66108,248.24994 258.34685,248.24993 C 258.03262,248.24994 257.78512,248.37477 257.60433,248.62442 C 257.42569,248.87193 257.33638,249.21414 257.33638,249.65104 C 257.33638,250.08794 257.42569,250.43123 257.60433,250.68088 C 257.78512,250.92839 258.03262,251.05214 258.34685,251.05214 C 258.66108,251.05214 258.90751,250.92839 259.08614,250.68088 C 259.26693,250.43123 259.35732,250.08794 259.35733,249.65104 M 261.53324,250.91333 L 261.53324,252.83097 L 260.93599,252.83097 L 260.93599,247.83993 L 261.53324,247.83993 L 261.53324,248.38875 C 261.65806,248.17353 261.81518,248.01427 262.00458,247.91096 C 262.19612,247.8055 262.42426,247.75277 262.68899,247.75277 C 263.12804,247.75277 263.48423,247.9271 263.75757,248.27576 C 264.03305,248.62443 264.1708,249.08285 264.1708,249.65104 C 264.1708,250.21923 264.03305,250.67766 263.75757,251.02632 C 263.48423,251.37498 263.12804,251.54931 262.68899,251.54931 C 262.42426,251.54931 262.19612,251.49766 262.00458,251.39435 C 261.81518,251.28889 261.65806,251.12855 261.53324,250.91333 M 263.55419,249.65104 C 263.55418,249.21414 263.46379,248.87193 263.283,248.62442 C 263.10437,248.37477 262.85793,248.24994 262.54371,248.24993 C 262.22948,248.24994 261.98198,248.37477 261.80119,248.62442 C 261.62255,248.87193 261.53323,249.21414 261.53324,249.65104 C 261.53323,250.08794 261.62255,250.43123 261.80119,250.68088 C 261.98198,250.92839 262.22948,251.05214 262.54371,251.05214 C 262.85793,251.05214 263.10437,250.92839 263.283,250.68088 C 263.46379,250.43123 263.55418,250.08794 263.55419,249.65104"
       id="text3174" />
    <path
       transform="scale(1.000687,0.999314)"
       style="font-size:13.22333717px;font-style:normal;font-weight:normal;text-align:center;text-anchor:middle;fill:black;fill-opacity:1;stroke:none;stroke-width:1px;stroke-linecap:butt;stroke-linejoin:miter;stroke-opacity:1;font-family:Sans"
       d="M 299.48549,249.15387 L 299.48549,250.91978 L 300.53148,250.91978 C 300.88229,250.91978 301.14164,250.84768 301.30951,250.70348 C 301.47954,250.55713 301.56455,250.33437 301.56455,250.03521 C 301.56455,249.7339 301.47954,249.51222 301.30951,249.37017 C 301.14164,249.22597 300.88229,249.15387 300.53148,249.15387 L 299.48549,249.15387 M 299.48549,247.17166 L 299.48549,248.62442 L 300.45077,248.62442 C 300.7693,248.62443 301.00604,248.56524 301.16101,248.44686 C 301.31812,248.32634 301.39667,248.1434 301.39668,247.89804 C 301.39667,247.65484 301.31812,247.47298 301.16101,247.35245 C 301.00604,247.23193 300.7693,247.17167 300.45077,247.17166 L 299.48549,247.17166 M 298.83337,246.63576 L 300.4992,246.63576 C 300.99636,246.63576 301.37946,246.73907 301.64849,246.94568 C 301.91752,247.1523 302.05203,247.44608 302.05203,247.82702 C 302.05203,248.12188 301.98316,248.35647 301.84542,248.5308 C 301.70767,248.70513 301.50536,248.81382 301.23849,248.85686 C 301.55917,248.92574 301.80775,249.06994 301.98424,249.28946 C 302.16287,249.50684 302.25219,249.7791 302.25219,250.10624 C 302.25219,250.53668 302.10584,250.8692 301.81314,251.1038 C 301.52043,251.33839 301.10397,251.45569 300.56376,251.45569 L 298.83337,251.45569 L 298.83337,246.63576 M 304.98338,249.63813 C 304.50343,249.63813 304.17091,249.69301 303.98582,249.80277 C 303.80072,249.91254 303.70818,250.09978 303.70818,250.3645 C 303.70818,250.57542 303.77705,250.7433 303.91479,250.86813 C 304.05469,250.99081 304.24408,251.05214 304.48298,251.05214 C 304.81227,251.05214 305.07592,250.93592 305.27393,250.70348 C 305.47409,250.46889 305.57416,250.15789 305.57417,249.77049 L 305.57417,249.63813 L 304.98338,249.63813 M 306.16818,249.39277 L 306.16818,251.45569 L 305.57417,251.45569 L 305.57417,250.90687 C 305.43857,251.1264 305.26962,251.28889 305.06732,251.39435 C 304.865,251.49766 304.6175,251.54931 304.32479,251.54931 C 303.95461,251.54931 303.65975,251.446 303.44023,251.23939 C 303.22285,251.03062 303.11416,250.75191 303.11416,250.40325 C 303.11416,249.99647 303.24975,249.68978 303.52093,249.48316 C 303.79427,249.27655 304.20104,249.17324 304.74125,249.17324 L 305.57417,249.17324 L 305.57417,249.11513 C 305.57416,248.8418 305.48377,248.63088 305.30299,248.48237 C 305.12435,248.33172 304.87254,248.25639 304.54755,248.25639 C 304.34093,248.25639 304.1397,248.28114 303.94385,248.33064 C 303.74799,248.38015 303.55967,248.4544 303.37889,248.5534 L 303.37889,248.00458 C 303.59626,247.92064 303.80718,247.85823 304.01164,247.81733 C 304.21611,247.77429 304.41519,247.75277 304.60889,247.75277 C 305.13188,247.75277 305.52251,247.88836 305.78078,248.15954 C 306.03905,248.43072 306.16818,248.8418 306.16818,249.39277 M 309.7,247.94647 L 309.7,248.5082 C 309.53213,248.42212 309.3578,248.35755 309.17701,248.3145 C 308.99622,248.27146 308.80898,248.24994 308.61528,248.24993 C 308.32042,248.24994 308.09874,248.29513 307.95024,248.38552 C 307.80388,248.47592 307.73071,248.61151 307.73071,248.7923 C 307.73071,248.93004 307.78344,249.03873 307.8889,249.11836 C 307.99436,249.19584 308.20635,249.2701 308.52488,249.34112 L 308.72827,249.38631 C 309.15011,249.47671 309.44927,249.60477 309.62575,249.77049 C 309.80438,249.93406 309.8937,250.16327 309.89371,250.45813 C 309.8937,250.79388 309.76026,251.05968 309.49339,251.25553 C 309.22866,251.45138 308.86386,251.54931 308.39898,251.54931 C 308.20528,251.54931 308.00297,251.52994 307.79205,251.4912 C 307.58328,251.45461 307.36268,251.39865 307.13023,251.32333 L 307.13023,250.70994 C 307.34976,250.82401 307.56606,250.9101 307.77913,250.96821 C 307.9922,251.02417 308.20312,251.05214 308.41189,251.05214 C 308.69168,251.05214 308.9069,251.0048 309.05756,250.9101 C 309.20822,250.81325 309.28354,250.67766 309.28355,250.50332 C 309.28354,250.34191 309.22866,250.21815 309.1189,250.13206 C 309.01129,250.04598 308.77346,249.96311 308.40543,249.88348 L 308.19882,249.83505 C 307.83079,249.75758 307.56499,249.6392 307.40142,249.47994 C 307.23785,249.31852 307.15606,249.09792 307.15606,248.81812 C 307.15606,248.47807 307.27659,248.2155 307.51764,248.03041 C 307.75869,247.84532 308.10089,247.75277 308.54425,247.75277 C 308.76378,247.75277 308.97039,247.76891 309.1641,247.80119 C 309.3578,247.83348 309.53643,247.8819 309.7,247.94647 M 313.9356,249.49931 L 313.9356,249.78986 L 311.20442,249.78986 C 311.23024,250.19878 311.35292,250.51086 311.57245,250.72608 C 311.79413,250.93915 312.1019,251.04569 312.49576,251.04569 C 312.72389,251.04569 312.9445,251.01771 313.15757,250.96175 C 313.37279,250.90579 313.58586,250.82186 313.79679,250.70994 L 313.79679,251.27167 C 313.58371,251.36207 313.36526,251.43094 313.14143,251.47829 C 312.91759,251.52564 312.69053,251.54931 312.46025,251.54931 C 311.88345,251.54931 311.4261,251.38144 311.0882,251.04569 C 310.75245,250.70994 310.58457,250.25582 310.58457,249.68332 C 310.58457,249.09146 310.74384,248.62227 311.06237,248.27576 C 311.38305,247.9271 311.81457,247.75277 312.35694,247.75277 C 312.84334,247.75277 313.22752,247.90988 313.50946,248.22411 C 313.79355,248.53618 313.9356,248.96125 313.9356,249.49931 M 313.34159,249.32497 C 313.33728,248.99999 313.24581,248.74065 313.06718,248.54694 C 312.89069,248.35324 312.6561,248.25639 312.3634,248.25639 C 312.03195,248.25639 311.76615,248.35002 311.56599,248.53726 C 311.36799,248.7245 311.25392,248.98815 311.22379,249.3282 L 313.34159,249.32497 M 316.54734,247.2782 L 315.66277,249.67687 L 317.43514,249.67687 L 316.54734,247.2782 M 316.17931,246.63576 L 316.9186,246.63576 L 318.75554,251.45569 L 318.07758,251.45569 L 317.63853,250.21923 L 315.46584,250.21923 L 315.02679,251.45569 L 314.33915,251.45569 L 316.17931,246.63576 M 320.00491,250.91333 L 320.00491,252.83097 L 319.40766,252.83097 L 319.40766,247.83993 L 320.00491,247.83993 L 320.00491,248.38875 C 320.12974,248.17353 320.28685,248.01427 320.47625,247.91096 C 320.6678,247.8055 320.89593,247.75277 321.16066,247.75277 C 321.59971,247.75277 321.95591,247.9271 322.22925,248.27576 C 322.50473,248.62443 322.64247,249.08285 322.64247,249.65104 C 322.64247,250.21923 322.50473,250.67766 322.22925,251.02632 C 321.95591,251.37498 321.59971,251.54931 321.16066,251.54931 C 320.89593,251.54931 320.6678,251.49766 320.47625,251.39435 C 320.28685,251.28889 320.12974,251.12855 320.00491,250.91333 M 322.02586,249.65104 C 322.02586,249.21414 321.93546,248.87193 321.75468,248.62442 C 321.57604,248.37477 321.32961,248.24994 321.01538,248.24993 C 320.70116,248.24994 320.45365,248.37477 320.27286,248.62442 C 320.09423,248.87193 320.00491,249.21414 320.00491,249.65104 C 320.00491,250.08794 320.09423,250.43123 320.27286,250.68088 C 320.45365,250.92839 320.70116,251.05214 321.01538,251.05214 C 321.32961,251.05214 321.57604,250.92839 321.75468,250.68088 C 321.93546,250.43123 322.02586,250.08794 322.02586,249.65104 M 324.20177,250.91333 L 324.20177,252.83097 L 323.60452,252.83097 L 323.60452,247.83993 L 324.20177,247.83993 L 324.20177,248.38875 C 324.3266,248.17353 324.48371,248.01427 324.67311,247.91096 C 324.86466,247.8055 325.09279,247.75277 325.35752,247.75277 C 325.79657,247.75277 326.15277,247.9271 326.4261,248.27576 C 326.70159,248.62443 326.83933,249.08285 326.83933,249.65104 C 326.83933,250.21923 326.70159,250.67766 326.4261,251.02632 C 326.15277,251.37498 325.79657,251.54931 325.35752,251.54931 C 325.09279,251.54931 324.86466,251.49766 324.67311,251.39435 C 324.48371,251.28889 324.3266,251.12855 324.20177,250.91333 M 326.22272,249.65104 C 326.22272,249.21414 326.13232,248.87193 325.95154,248.62442 C 325.7729,248.37477 325.52647,248.24994 325.21224,248.24993 C 324.89802,248.24994 324.65051,248.37477 324.46972,248.62442 C 324.29109,248.87193 324.20177,249.21414 324.20177,249.65104 C 324.20177,250.08794 324.29109,250.43123 324.46972,250.68088 C 324.65051,250.92839 324.89802,251.05214 325.21224,251.05214 C 325.52647,251.05214 325.7729,250.92839 325.95154,250.68088 C 326.13232,250.43123 326.22272,250.08794 326.22272,249.65104"
       id="text3178" />
    <path
       style="fill:none;fill-opacity:0.75;fill-rule:evenodd;stroke:black;stroke-width:1.00000095px;stroke-linecap:butt;stroke-linejoin:miter;stroke-opacity:1"
       id="path3030"
       d="M 376.39463,215.498 L 376.39463,241.43357" />
    <path
       style="fill:none;fill-opacity:0.75;fill-rule:evenodd;stroke:black;stroke-width:1.00000095px;stroke-linecap:butt;stroke-linejoin:miter;stroke-opacity:1"
       id="path3032"
       d="M 376.39463,257.54558 L 376.39463,294.58748" />
    <rect
       style="fill:#95daf4;fill-opacity:1;stroke:black;stroke-width:1.00000131;stroke-linejoin:miter;stroke-miterlimit:4;stroke-dasharray:none;stroke-dashoffset:0.99999996;stroke-opacity:1"
       y="241.17825"
       x="359.18143"
       height="16.767927"
       width="33.16428"
       id="rect3028" />
    <path
       transform="scale(1.000687,0.999314)"
       style="font-size:13.22333717px;font-style:normal;font-weight:normal;text-align:center;text-anchor:middle;fill:black;fill-opacity:1;stroke:none;stroke-width:1px;stroke-linecap:butt;stroke-linejoin:miter;stroke-opacity:1;font-family:Sans"
       d="M 362.15401,249.15387 L 362.15401,250.91978 L 363.2,250.91978 C 363.55081,250.91978 363.81015,250.84768 363.97803,250.70348 C 364.14805,250.55713 364.23307,250.33437 364.23307,250.03521 C 364.23307,249.7339 364.14805,249.51222 363.97803,249.37017 C 363.81015,249.22597 363.55081,249.15387 363.2,249.15387 L 362.15401,249.15387 M 362.15401,247.17166 L 362.15401,248.62442 L 363.11929,248.62442 C 363.43782,248.62443 363.67456,248.56524 363.82953,248.44686 C 363.98664,248.32634 364.06519,248.1434 364.0652,247.89804 C 364.06519,247.65484 363.98664,247.47298 363.82953,247.35245 C 363.67456,247.23193 363.43782,247.17167 363.11929,247.17166 L 362.15401,247.17166 M 361.50188,246.63576 L 363.16771,246.63576 C 363.66488,246.63576 364.04798,246.73907 364.31701,246.94568 C 364.58603,247.1523 364.72055,247.44608 364.72055,247.82702 C 364.72055,248.12188 364.65168,248.35647 364.51394,248.5308 C 364.37619,248.70513 364.17388,248.81382 363.90701,248.85686 C 364.22769,248.92574 364.47627,249.06994 364.65276,249.28946 C 364.83139,249.50684 364.92071,249.7791 364.92071,250.10624 C 364.92071,250.53668 364.77435,250.8692 364.48165,251.1038 C 364.18895,251.33839 363.77249,251.45569 363.23228,251.45569 L 361.50188,251.45569 L 361.50188,246.63576 M 367.6519,249.63813 C 367.17195,249.63813 366.83943,249.69301 366.65434,249.80277 C 366.46924,249.91254 366.3767,250.09978 366.3767,250.3645 C 366.3767,250.57542 366.44557,250.7433 366.58331,250.86813 C 366.72321,250.99081 366.9126,251.05214 367.1515,251.05214 C 367.48079,251.05214 367.74444,250.93592 367.94245,250.70348 C 368.1426,250.46889 368.24268,250.15789 368.24269,249.77049 L 368.24269,249.63813 L 367.6519,249.63813 M 368.8367,249.39277 L 368.8367,251.45569 L 368.24269,251.45569 L 368.24269,250.90687 C 368.10709,251.1264 367.93814,251.28889 367.73583,251.39435 C 367.53352,251.49766 367.28601,251.54931 366.99331,251.54931 C 366.62313,251.54931 366.32827,251.446 366.10874,251.23939 C 365.89137,251.03062 365.78268,250.75191 365.78268,250.40325 C 365.78268,249.99647 365.91827,249.68978 366.18945,249.48316 C 366.46279,249.27655 366.86956,249.17324 367.40977,249.17324 L 368.24269,249.17324 L 368.24269,249.11513 C 368.24268,248.8418 368.15229,248.63088 367.9715,248.48237 C 367.79287,248.33172 367.54105,248.25639 367.21607,248.25639 C 367.00945,248.25639 366.80822,248.28114 366.61237,248.33064 C 366.41651,248.38015 366.22819,248.4544 366.04741,248.5534 L 366.04741,248.00458 C 366.26478,247.92064 366.4757,247.85823 366.68016,247.81733 C 366.88462,247.77429 367.0837,247.75277 367.27741,247.75277 C 367.8004,247.75277 368.19103,247.88836 368.4493,248.15954 C 368.70757,248.43072 368.8367,248.8418 368.8367,249.39277 M 372.36852,247.94647 L 372.36852,248.5082 C 372.20065,248.42212 372.02631,248.35755 371.84553,248.3145 C 371.66474,248.27146 371.47749,248.24994 371.2838,248.24993 C 370.98894,248.24994 370.76726,248.29513 370.61875,248.38552 C 370.4724,248.47592 370.39923,248.61151 370.39923,248.7923 C 370.39923,248.93004 370.45196,249.03873 370.55742,249.11836 C 370.66287,249.19584 370.87487,249.2701 371.1934,249.34112 L 371.39679,249.38631 C 371.81862,249.47671 372.11778,249.60477 372.29427,249.77049 C 372.4729,249.93406 372.56222,250.16327 372.56222,250.45813 C 372.56222,250.79388 372.42878,251.05968 372.16191,251.25553 C 371.89718,251.45138 371.53238,251.54931 371.0675,251.54931 C 370.87379,251.54931 370.67148,251.52994 370.46057,251.4912 C 370.2518,251.45461 370.03119,251.39865 369.79875,251.32333 L 369.79875,250.70994 C 370.01828,250.82401 370.23458,250.9101 370.44765,250.96821 C 370.66072,251.02417 370.87164,251.05214 371.08041,251.05214 C 371.3602,251.05214 371.57542,251.0048 371.72608,250.9101 C 371.87673,250.81325 371.95206,250.67766 371.95206,250.50332 C 371.95206,250.34191 371.89718,250.21815 371.78742,250.13206 C 371.6798,250.04598 371.44198,249.96311 371.07395,249.88348 L 370.86734,249.83505 C 370.4993,249.75758 370.2335,249.6392 370.06993,249.47994 C 369.90636,249.31852 369.82458,249.09792 369.82458,248.81812 C 369.82458,248.47807 369.9451,248.2155 370.18616,248.03041 C 370.4272,247.84532 370.76941,247.75277 371.21277,247.75277 C 371.4323,247.75277 371.63891,247.76891 371.83262,247.80119 C 372.02631,247.83348 372.20495,247.8819 372.36852,247.94647 M 376.60412,249.49931 L 376.60412,249.78986 L 373.87294,249.78986 C 373.89876,250.19878 374.02144,250.51086 374.24097,250.72608 C 374.46265,250.93915 374.77042,251.04569 375.16428,251.04569 C 375.39241,251.04569 375.61302,251.01771 375.82609,250.96175 C 376.04131,250.90579 376.25438,250.82186 376.4653,250.70994 L 376.4653,251.27167 C 376.25223,251.36207 376.03378,251.43094 375.80995,251.47829 C 375.58611,251.52564 375.35905,251.54931 375.12876,251.54931 C 374.55196,251.54931 374.09461,251.38144 373.75671,251.04569 C 373.42097,250.70994 373.25309,250.25582 373.25309,249.68332 C 373.25309,249.09146 373.41236,248.62227 373.73089,248.27576 C 374.05157,247.9271 374.48309,247.75277 375.02546,247.75277 C 375.51186,247.75277 375.89603,247.90988 376.17798,248.22411 C 376.46207,248.53618 376.60412,248.96125 376.60412,249.49931 M 376.01011,249.32497 C 376.0058,248.99999 375.91433,248.74065 375.7357,248.54694 C 375.55921,248.35324 375.32462,248.25639 375.03191,248.25639 C 374.70047,248.25639 374.43467,248.35002 374.23451,248.53726 C 374.0365,248.7245 373.92244,248.98815 373.89231,249.3282 L 376.01011,249.32497 M 379.21586,247.2782 L 378.33129,249.67687 L 380.10366,249.67687 L 379.21586,247.2782 M 378.84783,246.63576 L 379.58712,246.63576 L 381.42405,251.45569 L 380.7461,251.45569 L 380.30704,250.21923 L 378.13436,250.21923 L 377.69531,251.45569 L 377.00767,251.45569 L 378.84783,246.63576 M 382.67343,250.91333 L 382.67343,252.83097 L 382.07618,252.83097 L 382.07618,247.83993 L 382.67343,247.83993 L 382.67343,248.38875 C 382.79826,248.17353 382.95537,248.01427 383.14477,247.91096 C 383.33631,247.8055 383.56445,247.75277 383.82918,247.75277 C 384.26823,247.75277 384.62443,247.9271 384.89776,248.27576 C 385.17325,248.62443 385.31099,249.08285 385.31099,249.65104 C 385.31099,250.21923 385.17325,250.67766 384.89776,251.02632 C 384.62443,251.37498 384.26823,251.54931 383.82918,251.54931 C 383.56445,251.54931 383.33631,251.49766 383.14477,251.39435 C 382.95537,251.28889 382.79826,251.12855 382.67343,250.91333 M 384.69438,249.65104 C 384.69437,249.21414 384.60398,248.87193 384.4232,248.62442 C 384.24456,248.37477 383.99813,248.24994 383.6839,248.24993 C 383.36967,248.24994 383.12217,248.37477 382.94138,248.62442 C 382.76274,248.87193 382.67343,249.21414 382.67343,249.65104 C 382.67343,250.08794 382.76274,250.43123 382.94138,250.68088 C 383.12217,250.92839 383.36967,251.05214 383.6839,251.05214 C 383.99813,251.05214 384.24456,250.92839 384.4232,250.68088 C 384.60398,250.43123 384.69437,250.08794 384.69438,249.65104 M 386.87029,250.91333 L 386.87029,252.83097 L 386.27304,252.83097 L 386.27304,247.83993 L 386.87029,247.83993 L 386.87029,248.38875 C 386.99512,248.17353 387.15223,248.01427 387.34163,247.91096 C 387.53317,247.8055 387.76131,247.75277 388.02604,247.75277 C 388.46509,247.75277 388.82129,247.9271 389.09462,248.27576 C 389.37011,248.62443 389.50785,249.08285 389.50785,249.65104 C 389.50785,250.21923 389.37011,250.67766 389.09462,251.02632 C 388.82129,251.37498 388.46509,251.54931 388.02604,251.54931 C 387.76131,251.54931 387.53317,251.49766 387.34163,251.39435 C 387.15223,251.28889 386.99512,251.12855 386.87029,250.91333 M 388.89124,249.65104 C 388.89123,249.21414 388.80084,248.87193 388.62005,248.62442 C 388.44142,248.37477 388.19499,248.24994 387.88076,248.24993 C 387.56653,248.24994 387.31903,248.37477 387.13824,248.62442 C 386.9596,248.87193 386.87029,249.21414 386.87029,249.65104 C 386.87029,250.08794 386.9596,250.43123 387.13824,250.68088 C 387.31903,250.92839 387.56653,251.05214 387.88076,251.05214 C 388.19499,251.05214 388.44142,250.92839 388.62005,250.68088 C 388.80084,250.43123 388.89123,250.08794 388.89124,249.65104"
       id="text3182" />
    <g
       id="g3391"
       transform="matrix(0.829813,0,0,0.828973,71.21063,137.5949)">
      <path
         style="fill:none;fill-opacity:0.75;fill-rule:evenodd;stroke:black;stroke-width:1.20570171px;stroke-linecap:butt;stroke-linejoin:miter;stroke-opacity:1"
         id="path3346"
         d="M 108.53913,229.70294 L 108.53913,251.92629" />
      <g
         id="g3386">
        <rect
           style="fill:#95daf4;fill-opacity:1;stroke:black;stroke-width:1.20570195;stroke-linejoin:miter;stroke-miterlimit:4;stroke-dasharray:none;stroke-dashoffset:0.99999996;stroke-opacity:1"
           y="252.08548"
           x="88.556145"
           height="20.227325"
           width="39.965965"
           id="rect3344" />
        <text
           style="font-size:15.94341278px;font-style:normal;font-weight:normal;text-align:center;text-anchor:middle;fill:black;fill-opacity:1;stroke:none;stroke-width:1px;stroke-linecap:butt;stroke-linejoin:miter;stroke-opacity:1;font-family:Sans"
           transform="scale(1.000181,0.999819)"
           y="264.44583"
           x="108.51365"
           id="text3380"
           xml:space="preserve"><tspan
             sodipodi:role="line"
             style="font-size:7.97170639px"
             id="tspan3382"
             y="264.44583"
             x="108.51365">CellApp</tspan></text>
      </g>
    </g>
    <g
       id="g3398"
       transform="matrix(0.829813,0,0,0.828973,131.4198,137.5949)">
      <path
         style="fill:none;fill-opacity:0.75;fill-rule:evenodd;stroke:black;stroke-width:1.20570171px;stroke-linecap:butt;stroke-linejoin:miter;stroke-opacity:1"
         d="M 108.53913,229.70294 L 108.53913,251.92629"
         id="path3400" />
      <g
         id="g3402">
        <rect
           style="fill:#95daf4;fill-opacity:1;stroke:black;stroke-width:1.20570195;stroke-linejoin:miter;stroke-miterlimit:4;stroke-dasharray:none;stroke-dashoffset:0.99999996;stroke-opacity:1"
           y="252.08548"
           x="88.556145"
           height="20.227325"
           width="39.965965"
           id="rect3404" />
        <text
           style="font-size:15.94341278px;font-style:normal;font-weight:normal;text-align:center;text-anchor:middle;fill:black;fill-opacity:1;stroke:none;stroke-width:1px;stroke-linecap:butt;stroke-linejoin:miter;stroke-opacity:1;font-family:Sans"
           transform="scale(1.000181,0.999819)"
           y="264.44583"
           x="108.51365"
           id="text3406"
           xml:space="preserve"><tspan
             style="font-size:7.97170639px"
             sodipodi:role="line"
             id="tspan3408"
             y="264.44583"
             x="108.51365">CellApp</tspan></text>
      </g>
    </g>
    <g
       transform="matrix(0.829813,0,0,0.828973,191.6287,137.5949)"
       id="g3410">
      <path
         style="fill:none;fill-opacity:0.75;fill-rule:evenodd;stroke:black;stroke-width:1.20570171px;stroke-linecap:butt;stroke-linejoin:miter;stroke-opacity:1"
         id="path3412"
         d="M 108.53913,229.70294 L 108.53913,251.92629" />
      <g
         id="g3414">
        <rect
           style="fill:#95daf4;fill-opacity:1;stroke:black;stroke-width:1.20570195;stroke-linejoin:miter;stroke-miterlimit:4;stroke-dasharray:none;stroke-dashoffset:0.99999996;stroke-opacity:1"
           y="252.08548"
           x="88.556145"
           height="20.227325"
           width="39.965965"
           id="rect3416" />
        <text
           style="font-size:15.94341278px;font-style:normal;font-weight:normal;text-align:center;text-anchor:middle;fill:black;fill-opacity:1;stroke:none;stroke-width:1px;stroke-linecap:butt;stroke-linejoin:miter;stroke-opacity:1;font-family:Sans"
           transform="scale(1.000181,0.999819)"
           y="264.44583"
           x="108.51365"
           id="text3418"
           xml:space="preserve"><tspan
             sodipodi:role="line"
             style="font-size:7.97170639px"
             id="tspan3420"
             y="264.44583"
             x="108.51365">CellApp</tspan></text>
      </g>
    </g>
    <g
       id="g3422"
       transform="matrix(0.829813,0,0,0.828973,251.8377,137.5949)">
      <path
         style="fill:none;fill-opacity:0.75;fill-rule:evenodd;stroke:black;stroke-width:1.20570171px;stroke-linecap:butt;stroke-linejoin:miter;stroke-opacity:1"
         d="M 108.53913,229.70294 L 108.53913,251.92629"
         id="path3424" />
      <g
         id="g3426">
        <rect
           style="fill:#95daf4;fill-opacity:1;stroke:black;stroke-width:1.20570195;stroke-linejoin:miter;stroke-miterlimit:4;stroke-dasharray:none;stroke-dashoffset:0.99999996;stroke-opacity:1"
           y="252.08548"
           x="88.556145"
           height="20.227325"
           width="39.965965"
           id="rect3428" />
        <text
           style="font-size:15.94341278px;font-style:normal;font-weight:normal;text-align:center;text-anchor:middle;fill:black;fill-opacity:1;stroke:none;stroke-width:1px;stroke-linecap:butt;stroke-linejoin:miter;stroke-opacity:1;font-family:Sans"
           transform="scale(1.000181,0.999819)"
           y="264.44583"
           x="108.51365"
           id="text3430"
           xml:space="preserve"><tspan
             style="font-size:7.97170639px"
             sodipodi:role="line"
             id="tspan3432"
             y="264.44583"
             x="108.51365">CellApp</tspan></text>
      </g>
    </g>
    <g
       transform="matrix(0.829813,0,0,0.828973,312.0467,137.5949)"
       id="g3434">
      <path
         style="fill:none;fill-opacity:0.75;fill-rule:evenodd;stroke:black;stroke-width:1.20570171px;stroke-linecap:butt;stroke-linejoin:miter;stroke-opacity:1"
         id="path3436"
         d="M 108.53913,229.70294 L 108.53913,251.92629" />
      <g
         id="g3438">
        <rect
           style="fill:#95daf4;fill-opacity:1;stroke:black;stroke-width:1.20570195;stroke-linejoin:miter;stroke-miterlimit:4;stroke-dasharray:none;stroke-dashoffset:0.99999996;stroke-opacity:1"
           y="252.08548"
           x="88.556145"
           height="20.227325"
           width="39.965965"
           id="rect3440" />
        <text
           style="font-size:15.94341278px;font-style:normal;font-weight:normal;text-align:center;text-anchor:middle;fill:black;fill-opacity:1;stroke:none;stroke-width:1px;stroke-linecap:butt;stroke-linejoin:miter;stroke-opacity:1;font-family:Sans"
           transform="scale(1.000181,0.999819)"
           y="264.44583"
           x="108.51365"
           id="text3442"
           xml:space="preserve"><tspan
             sodipodi:role="line"
             style="font-size:7.97170639px"
             id="tspan3444"
             y="264.44583"
             x="108.51365">CellApp</tspan></text>
      </g>
    </g>
    <path
       style="opacity:1;fill:url(#linearGradient2957);fill-opacity:1;stroke:black;stroke-width:1.00000095;stroke-opacity:1"
       d="M 307.5388,40.416181 C 289.75261,40.416181 274.60721,46.277007 268.93492,54.445792 C 256.88748,47.844266 238.9018,43.626346 218.79745,43.626346 C 182.55297,43.626346 153.16294,57.268391 153.16294,74.063467 C 153.16294,87.729329 172.63325,99.27618 199.41624,103.11348 C 198.49145,104.99464 197.9894,106.96867 197.9894,108.97897 C 197.9894,123.47576 223.37254,135.21512 254.66655,135.21512 C 285.96057,135.21512 311.38333,123.47576 311.38333,108.97897 C 311.38333,107.85454 311.20423,106.73726 310.90772,105.6499 C 344.60052,104.72834 370.95378,96.816874 370.95379,87.181549 C 370.95379,80.95697 359.92165,75.492791 343.05119,72.121516 C 346.52699,69.016919 348.52074,65.419449 348.52074,61.579493 C 348.52074,49.911334 330.16951,40.416181 307.5388,40.416181 z "
       id="path2049" />
    <path
       style="fill:none;fill-opacity:0.75;fill-rule:evenodd;stroke:black;stroke-width:1.00000095px;stroke-linecap:butt;stroke-linejoin:miter;stroke-opacity:1"
       d="M 253.99277,135.84924 L 253.99277,181.82836"
       id="path4737" />
  </g>
</svg>
